<?xml version="1.0" encoding="utf-8"?>
<!-- Generator: Adobe Illustrator 23.0.3, SVG Export Plug-In . SVG Version: 6.00 Build 0)  -->
<svg version="1.1" id="Layer_1" xmlns="http://www.w3.org/2000/svg" xmlns:xlink="http://www.w3.org/1999/xlink" x="0px" y="0px"
	 viewBox="0 0 288 288" style="enable-background:new 0 0 288 288;" xml:space="preserve">
<style type="text/css">
	.st0{fill:#727373;stroke:#727374;stroke-width:3;stroke-miterlimit:10;}
	.st1{fill:#D6D6D6;}
	.st2{fill:#E0E0E0;}
	.st3{fill:#FBB252;}
</style>
<rect x="131.9" y="31" class="st0" width="7.4" height="47.6"/>
<circle class="st1" cx="142.4" cy="150.9" r="83.3"/>
<path class="st2" d="M137.4,175.3h-10.9c-2.3,0-4.1-1.8-4.1-4.1v-10.9c0-2.3,1.8-4.1,4.1-4.1h10.9c2.3,0,4.1,1.8,4.1,4.1v10.9
	C141.4,173.5,139.6,175.3,137.4,175.3z"/>
<path class="st2" d="M162.5,129.1h-10.9c-2.3,0-4.1-1.8-4.1-4.1v-10.9c0-2.3,1.8-4.1,4.1-4.1h10.9c2.3,0,4.1,1.8,4.1,4.1V125
	C166.6,127.2,164.8,129.1,162.5,129.1z"/>
<path class="st2" d="M162.5,196.7h-10.9c-2.3,0-4.1-1.8-4.1-4.1v-10.9c0-2.3,1.8-4.1,4.1-4.1h10.9c2.3,0,4.1,1.8,4.1,4.1v10.9
	C166.6,194.9,164.8,196.7,162.5,196.7z"/>
<path class="st2" d="M122.4,205.9h-10.9c-2.3,0-4.1-1.8-4.1-4.1V191c0-2.3,1.8-4.1,4.1-4.1h10.9c2.3,0,4.1,1.8,4.1,4.1v10.9
	C126.4,204.1,124.6,205.9,122.4,205.9z"/>
<path class="st2" d="M168.8,163.1h-10.9c-2.3,0-4.1-1.8-4.1-4.1v-10.9c0-2.3,1.8-4.1,4.1-4.1h10.9c2.3,0,4.1,1.8,4.1,4.1v10.9
	C172.8,161.3,171,163.1,168.8,163.1z"/>
<path class="st2" d="M198.6,187.2h-10.9c-2.3,0-4.1-1.8-4.1-4.1v-10.9c0-2.3,1.8-4.1,4.1-4.1h10.9c2.3,0,4.1,1.8,4.1,4.1v10.9
	C202.7,185.4,200.9,187.2,198.6,187.2z"/>
<path class="st2" d="M202.4,143.7h-10.9c-2.3,0-4.1-1.8-4.1-4.1v-10.9c0-2.3,1.8-4.1,4.1-4.1h10.9c2.3,0,4.1,1.8,4.1,4.1v10.9
	C206.4,141.8,204.6,143.7,202.4,143.7z"/>
<polygon class="st3" points="89.1,101.7 82.6,82.9 70.8,76.5 82.6,70 89.1,50.2 95.5,70 107.3,76.5 95.5,82.9 "/>
<polygon class="st3" points="101.5,137.4 96.1,121.6 86.2,116.1 96.1,110.7 101.5,94 107,110.7 116.9,116.1 107,121.6 "/>
<polygon class="st3" points="68.6,124.6 64.3,112.3 56.6,108 64.3,103.8 68.6,90.7 72.8,103.8 80.6,108 72.8,112.3 "/>
</svg>
