<?xml version="1.0" encoding="utf-8"?>
<!-- Generator: Adobe Illustrator 23.0.2, SVG Export Plug-In . SVG Version: 6.00 Build 0)  -->
<svg version="1.1" id="Layer_1" xmlns="http://www.w3.org/2000/svg" xmlns:xlink="http://www.w3.org/1999/xlink" x="0px" y="0px"
	 viewBox="0 0 288 288" style="enable-background:new 0 0 288 288;" xml:space="preserve">
<style type="text/css">
	.st0{fill:#727373;stroke:#727374;stroke-width:3;stroke-miterlimit:10;}
	.st1{fill:#D6D6D6;stroke:#C2C1C0;stroke-width:3;stroke-miterlimit:10;}
	.st2{fill:#E0E0E0;}
	.st3{fill:#FBB252;stroke:#F26A5C;stroke-miterlimit:10;}
</style>
<rect x="131.92" y="30.98" class="st0" width="7.42" height="47.6"/>
<circle class="st1" cx="142.43" cy="150.92" r="83.3"/>
<path class="st2" d="M137.36,175.29h-10.87c-2.25,0-4.07-1.82-4.07-4.07v-10.87c0-2.25,1.82-4.07,4.07-4.07h10.87
	c2.25,0,4.07,1.82,4.07,4.07v10.87C141.43,173.47,139.61,175.29,137.36,175.29z"/>
<path class="st2" d="M162.53,129.06h-10.87c-2.25,0-4.07-1.82-4.07-4.07v-10.87c0-2.25,1.82-4.07,4.07-4.07h10.87
	c2.25,0,4.07,1.82,4.07,4.07v10.87C166.61,127.24,164.78,129.06,162.53,129.06z"/>
<path class="st2" d="M162.53,196.74h-10.87c-2.25,0-4.07-1.82-4.07-4.07V181.8c0-2.25,1.82-4.07,4.07-4.07h10.87
	c2.25,0,4.07,1.82,4.07,4.07v10.87C166.61,194.92,164.78,196.74,162.53,196.74z"/>
<path class="st2" d="M122.37,205.91H111.5c-2.25,0-4.07-1.82-4.07-4.07v-10.87c0-2.25,1.82-4.07,4.07-4.07h10.87
	c2.25,0,4.07,1.82,4.07,4.07v10.87C126.44,204.09,124.62,205.91,122.37,205.91z"/>
<path class="st2" d="M168.77,163.13h-10.87c-2.25,0-4.07-1.82-4.07-4.07v-10.87c0-2.25,1.82-4.07,4.07-4.07h10.87
	c2.25,0,4.07,1.82,4.07,4.07v10.87C172.84,161.31,171.02,163.13,168.77,163.13z"/>
<path class="st2" d="M198.62,187.23h-10.87c-2.25,0-4.07-1.82-4.07-4.07v-10.87c0-2.25,1.82-4.07,4.07-4.07h10.87
	c2.25,0,4.07,1.82,4.07,4.07v10.87C202.69,185.41,200.87,187.23,198.62,187.23z"/>
<path class="st2" d="M202.36,143.66h-10.87c-2.25,0-4.07-1.82-4.07-4.07v-10.87c0-2.25,1.82-4.07,4.07-4.07h10.87
	c2.25,0,4.07,1.82,4.07,4.07v10.87C206.43,141.84,204.61,143.66,202.36,143.66z"/>
<polygon class="st3" points="89.05,101.73 82.59,82.93 70.79,76.48 82.59,70.02 89.05,50.22 95.5,70.02 107.3,76.48 95.5,82.93 "/>
<polygon class="st3" points="101.53,137.4 96.09,121.57 86.16,116.14 96.09,110.71 101.53,94.04 106.96,110.71 116.89,116.14 
	106.96,121.57 "/>
<polygon class="st3" points="68.6,124.64 64.35,112.26 56.58,108.01 64.35,103.76 68.6,90.72 72.85,103.76 80.62,108.01 
	72.85,112.26 "/>
</svg>
