<?xml version="1.0" encoding="utf-8"?>
<!-- Generator: Adobe Illustrator 23.0.3, SVG Export Plug-In . SVG Version: 6.00 Build 0)  -->
<svg version="1.1" id="Layer_1" xmlns="http://www.w3.org/2000/svg" xmlns:xlink="http://www.w3.org/1999/xlink" x="0px" y="0px"
	 viewBox="0 0 172.9 190.2" style="enable-background:new 0 0 172.9 190.2;" xml:space="preserve">
<style type="text/css">
	.st0{fill:#F26A5C;}
	.st1{fill:#B83664;}
	.st2{fill:#83B8AA;}
	.st3{fill:#FBB252;}
	.st4{fill:#FEB250;}
	.st5{fill:#B93564;}
	.st6{fill:#FF6A5B;}
	.st7{fill:#84B8AB;}
</style>
<image style="overflow:visible;" width="1920" height="1080" xlink:href="A09287F1.jpg"  transform="matrix(0.1147 0 0 0.1147 -33.1702 -283.8101)">
</image>
<title>Graphic2</title>
<g>
	<polygon class="st0" points="280.9,-215.9 304.8,-25.7 340.7,-25.7 366.5,-215.9 	"/>
	<polygon class="st1" points="268.6,-135.8 259.8,-179.2 335.5,-179.2 311.6,-25.7 277.9,-25.7 	"/>
	<polygon class="st2" points="261.5,-25.7 235.7,-119 277.2,-135.8 283.9,-25.7 	"/>
	<polygon class="st3" points="245.1,-107.2 242.9,-114.8 251.6,-118.8 254.1,-110.1 	"/>
	<polygon class="st3" points="259.8,-122.6 262.9,-113 272.5,-116.6 270.7,-127 	"/>
	<polygon class="st3" points="247.2,-98.3 250,-89.9 260.5,-94.1 256,-102.4 247.2,-99.3 	"/>
	<polygon class="st3" points="263.7,-105.1 266.7,-95.5 276.4,-99.1 274.5,-109.4 	"/>
	<polygon class="st3" points="252.4,-81.8 254.8,-74.3 262.3,-77.1 260.8,-85.2 	"/>
	<polygon class="st3" points="268.3,-87.2 270.7,-79.7 278.2,-82.6 276.8,-90.6 	"/>
	<polygon class="st3" points="270,-166.7 273.3,-157.3 283.9,-158.9 282.6,-169.5 	"/>
	<rect x="294.4" y="-169.5" class="st3" width="9.6" height="12.1"/>
	<polygon class="st3" points="317.4,-169.5 317.4,-159.9 326.1,-159.9 328.6,-169.5 	"/>
	<polygon class="st3" points="277,-146.8 278.2,-137.6 286.8,-137.6 285.5,-148.1 	"/>
	<polygon class="st3" points="294.4,-146.5 297.6,-137.6 304,-139.8 304,-148.1 	"/>
	<polygon class="st3" points="313.9,-146.5 312.3,-133.7 323,-133.7 323,-146.5 	"/>
	<polygon class="st3" points="280.9,-125.7 286.8,-125.7 288,-113 280.9,-113 	"/>
	<polygon class="st3" points="294.4,-125.7 297.6,-115.8 305.9,-115.8 304,-125.7 	"/>
	<polygon class="st3" points="312.3,-123.8 312.3,-115.8 320.6,-113 320.6,-123.8 	"/>
	<polygon class="st3" points="283.9,-99.8 284.5,-92.2 291.9,-94.1 289.6,-104.6 	"/>
	<polygon class="st3" points="297.6,-102.4 297.6,-90.6 305.9,-92.2 305.9,-100.8 	"/>
	<polygon class="st3" points="312.3,-102.4 312.3,-93.8 319.4,-95.5 317.7,-104.6 	"/>
	<polygon class="st3" points="289.7,-206.5 291.9,-197.7 301.8,-199.7 299.2,-208.2 	"/>
	<polygon class="st3" points="314,-206.5 315.8,-197.7 326.1,-199 323.7,-206.5 	"/>
	<polygon class="st3" points="334.4,-206.5 337.4,-199.7 348.4,-199.7 347.4,-208.2 	"/>
	<polygon class="st3" points="295.7,-190.5 297.6,-183.5 305.9,-183.5 304,-193 	"/>
	<polygon class="st3" points="317.7,-191.3 319.4,-183.5 328.6,-185.3 328.6,-193 	"/>
	<polygon class="st3" points="341.4,-191.5 341.4,-185.3 352.9,-185.3 351.4,-194 	"/>
	<polygon class="st3" points="340.4,-170.9 341.4,-163.4 351.4,-163.4 351.4,-172.1 	"/>
	<polygon class="st3" points="336.7,-154.9 338.2,-146.5 347.1,-146.5 348.4,-154.9 	"/>
	<polygon class="st3" points="334.4,-135.8 336.7,-127 348.4,-128.3 347.1,-137.6 	"/>
	<polygon class="st3" points="333.2,-118.4 333.2,-111.4 347.1,-113 343.6,-120.8 	"/>
	<polygon class="st3" points="330.2,-98.4 331.5,-89.9 344.9,-92.2 342.5,-100.4 	"/>
	<rect x="328.6" y="-79.2" class="st3" width="8.9" height="10.6"/>
	<polygon class="st3" points="376,-140.1 352.9,-25.7 376,-25.7 390.2,-137.6 408.5,-135.8 400.1,-177.3 366.5,-148.1 361.5,-142.8 
			"/>
</g>
<image style="overflow:visible;" width="555" height="416" xlink:href="A09287F7.jpg"  transform="matrix(0.4285 0 0 0.238 -350.0754 -199.9428)">
</image>
<g>
	<polygon class="st4" points="172.3,1 86.6,1 95,107.2 136,118.2 0,190.2 118.7,190.2 147.5,118.2 	"/>
	<g>
		<polygon class="st5" points="86.6,1 158.4,7.4 136,118.2 95,107.2 		"/>
		<circle class="st2" cx="139.5" cy="62.4" r="3.6"/>
	</g>
</g>
<line class="st4" x1="14.7" y1="183.2" x2="98.9" y2="183.2"/>
<g>
	<polygon class="st6" points="59.6,-95.5 34.6,-47 157.1,-47 122.4,-95.5 	"/>
	<polygon class="st7" points="68.3,-95.5 52.5,-47 68.3,-47 73.4,-95.5 	"/>
	<polygon class="st7" points="82.6,-95.5 77,-47 93.6,-47 88,-95.5 	"/>
	<polygon class="st7" points="113.8,-95.5 143.9,-47 124.5,-47 108.7,-95.5 	"/>
	<polygon class="st7" points="95.9,-95.5 102.1,-47 118,-47 101.1,-95.5 	"/>
</g>
</svg>
