<svg id="Layer_1" data-name="Layer 1" xmlns="http://www.w3.org/2000/svg" viewBox="0 0 171.29 139.97"><defs><style>.cls-1{fill:#eddfe2;}.cls-2{fill:#f26a5c;}.cls-3{fill:#fbb252;}.cls-4{fill:#b83664;}.cls-5{fill:#ede2e8;}</style></defs><title>Graphic1</title><path class="cls-1" d="M94.14,100.94v11l6,9.39h-6v17.42H78.78v12.37H57.24V131.19l10.32-17.65s3-.69,4.12.69,9.17-9.4,9.17-9.4,5,.92,7.79-.68Z" transform="translate(-19.58 -76.57)"/><path class="cls-2" d="M95.28,98.65s4.81-3.44,4.81-5.27V86h-8.7s-7-8.7-9.34-8.93-12-.69-15.18,0-11.23,1.6-14.44,6.18S45.33,95,45.33,97.5s-1.38,4.58,1.6,10.08,10.31,23.61,10.31,23.61l14.44-17,.87,24.52H94.14v-14H80.39V104.83H94.14Z" transform="translate(-19.58 -76.57)"/><path class="cls-3" d="M57.24,151.12s-17.6-1.3-21.31,0-14.8-2.69-15.24,6.85-1.11,58.57-1.11,58.57h92.29V154.87s1.55-6.44-5.11-6.44-28,2.69-28,2.69" transform="translate(-19.58 -76.57)"/><rect class="cls-4" x="16.35" y="74.6" width="7.79" height="65.37"/><rect class="cls-4" x="69.28" y="72.55" width="7.79" height="67.42"/><polygon class="cls-5" points="127.25 18.79 121.67 26.43 109.7 31.38 113.83 37.37 124.15 55.33 123.53 73.08 144.38 73.08 144.38 44.39 143.56 21.47 127.25 18.79"/><path class="cls-3" d="M125.15,126.33l22.3,9.49,15.07-16.93L164,135.82l9.29-8.46L184,114.56s5.16-10.74,3.31-14.25S178,91,173.26,88.75s-24.78-10.94-24.78-10.94l-4.33-1.24s-2.07,6-1.24,9.91,3.92,8.88,3.92,8.88l6.61,5.57-2.89,8.67a42.16,42.16,0,0,1,5.88.42c2.38.41,5.27,1.85,3.61,3.5s-7.63,7.23-7.63,7.23a73.78,73.78,0,0,0-10.95-2.68c-3.92-.42-8.05-4.13-8.05-4.13Z" transform="translate(-19.58 -76.57)"/><path class="cls-2" d="M114.21,216.54h76.6V172.78s.8-6-3.11-9.91-5.57-5.37-9.9-5.58-13.83,0-13.83,0v-7.64H143.12l-.62,6.2s-14.87.62-15.49.62-6.19,1.44-8.88,5.78a29.39,29.39,0,0,0-3.92,15.89C114.62,182.89,114.21,216.54,114.21,216.54Z" transform="translate(-19.58 -76.57)"/></svg>