<svg id="Layer_1" data-name="Layer 1" xmlns="http://www.w3.org/2000/svg" viewBox="0 0 184.35 173.57"><defs><style>.cls-1{fill:#f6c4c3;}.cls-2{fill:#b83664;}.cls-3,.cls-5{fill:#83b8aa;}.cls-4{fill:#fbb252;}.cls-5{stroke:#b83664;stroke-miterlimit:10;stroke-width:0.75px;}</style></defs><title>Graphic3</title><polygon class="cls-1" points="78.79 42.49 78.79 55.71 84.73 64.14 78.79 64.14 78.79 71.23 70.74 71.23 77.73 76.59 77.73 81.38 62.51 81.38 62.51 101.11 61.55 112.61 42.39 112.61 40.48 99.58 40.48 77.55 44.88 51.31 57.14 39.62 68.06 38.66 78.79 42.49"/><path class="cls-2" d="M49.68,118.06s-5.74-13.6-6.89-17-4.6-12.84-4.6-14.56a14.54,14.54,0,0,1,4.4-9.58c3.64-3.64,4.22-5.75,7.09-5.75h43.1A10.9,10.9,0,0,1,91.25,79c-2.49,3.64-5.94,7.66-8,9S74,90.48,74,90.48l-.57,10.92s-1.92,3.06-3.26.77-5.75-4-7.09-3.45S49.68,118.06,49.68,118.06Z" transform="translate(-9.21 -42.43)"/><path class="cls-3" d="M45.85,141.82s6.13,5.55,9.77,6.32a36.63,36.63,0,0,0,11.3,0c1.73-.38,6.32-5,7.47-5s10.54,0,15,2.87,15.7,12.65,18.19,18,3.45,25.48,3.26,32,0,20,0,20H9.26V187.22s-.57-13.6,1.92-18.58,5.75-12.45,10.73-16.09,16.66-9.39,19-9.77S45.85,141.82,45.85,141.82Z" transform="translate(-9.21 -42.43)"/><rect class="cls-4" x="90.15" y="73.62" width="19.78" height="38.31" rx="4.32" ry="4.32"/><rect class="cls-3" x="92.53" y="76.87" width="15.26" height="29.56" rx="4.32" ry="4.32"/><path class="cls-2" d="M106.25,129.9a8.57,8.57,0,0,0-1.93,2,7.77,7.77,0,0,0-.7,2.92,7.87,7.87,0,0,0,1.46,3.37,5.69,5.69,0,0,0,2.51,1.48,8.22,8.22,0,0,0,3.36,0c.85-.3,2.69-1.44,3-2.25a10.58,10.58,0,0,0,.88-3.27,13.61,13.61,0,0,0-.82-3.19,13,13,0,0,0-1.75-2.45c-.41-.38-2.63-1.9-2.63-1.9s.09,1.43.09,1.78a3.88,3.88,0,0,1-.52,1.9,6.69,6.69,0,0,1-1.15,1.29l-1.08.4A7.25,7.25,0,0,1,106.25,129.9Z" transform="translate(-9.21 -42.43)"/><line class="cls-5" x1="105.61" y1="73.62" x2="138.33" y2="3.05"/><line class="cls-5" x1="109.93" y1="90.76" x2="181.7" y2="9.16"/><line class="cls-5" x1="109.93" y1="97.37" x2="181.7" y2="92.77"/><line class="cls-5" x1="109.93" y1="107.61" x2="170.1" y2="143.85"/><circle class="cls-2" cx="139.15" cy="2.65" r="2.65"/><circle class="cls-2" cx="181.7" cy="9.16" r="2.65"/><circle class="cls-2" cx="181.7" cy="92.77" r="2.65"/><circle class="cls-2" cx="170.1" cy="143.85" r="2.65"/></svg>